<?xml version="1.0" encoding="utf-8"?>
<!-- Generator: Adobe Illustrator 25.2.1, SVG Export Plug-In . SVG Version: 6.00 Build 0)  -->
<svg version="1.1" xmlns="http://www.w3.org/2000/svg" xmlns:xlink="http://www.w3.org/1999/xlink" x="0px" y="0px"
	 viewBox="0 0 200 200" style="enable-background:new 0 0 200 200;" xml:space="preserve">
<style type="text/css">
	.st0{fill:#9B9B9B;}
	.st1{display:none;}
	.st2{display:inline;}
	.st3{fill:#EAEAEA;}
	.st4{display:inline;fill:#9B9B9B;}
</style>
<g id="Facebook">
	<g>
		<g>
			<g>
				<path class="st0" d="M100,185c-46.87,0-85-38.13-85-85s38.13-85,85-85s85,38.13,85,85S146.87,185,100,185z M100,22.25
					c-42.87,0-77.75,34.88-77.75,77.75c0,42.87,34.88,77.75,77.75,77.75c42.87,0,77.75-34.88,77.75-77.75
					C177.75,57.13,142.87,22.25,100,22.25z"/>
			</g>
		</g>
		<g>
			<path class="st0" d="M119.24,99.99L107.04,100l-0.01,44.65H90.3V100H79.14V84.62l11.16-0.01l-0.02-9.06
				c0-12.56,3.4-20.19,18.19-20.19h12.32v15.39h-7.7c-5.76,0-6.04,2.15-6.04,6.16l-0.02,7.7h13.84L119.24,99.99z M119.24,99.99"/>
		</g>
	</g>
</g>
<g id="Twitter" class="st1">
	<g class="st2">
		<g>
			<path class="st0" d="M100,185c-46.87,0-85-38.13-85-85s38.13-85,85-85s85,38.13,85,85S146.87,185,100,185z M100,22.25
				c-42.87,0-77.75,34.88-77.75,77.75c0,42.87,34.88,77.75,77.75,77.75c42.87,0,77.75-34.88,77.75-77.75
				C177.75,57.13,142.87,22.25,100,22.25z"/>
		</g>
		<path class="st0" d="M138.73,75.98c-2.88,1.26-5.95,2.1-9.15,2.51c3.29-1.97,5.8-5.05,6.99-8.78c-3.07,1.83-6.46,3.12-10.07,3.84
			c-2.91-3.1-7.07-5.02-11.6-5.02c-8.79,0-15.87,7.14-15.87,15.88c0,1.26,0.11,2.47,0.37,3.62c-13.2-0.64-24.88-6.97-32.73-16.61
			c-1.37,2.38-2.17,5.1-2.17,8.03c0,5.5,2.83,10.37,7.05,13.2c-2.55-0.05-5.05-0.79-7.17-1.96c0,0.05,0,0.11,0,0.17
			c0,7.72,5.5,14.13,12.72,15.6c-1.29,0.35-2.7,0.52-4.16,0.52c-1.02,0-2.04-0.06-3.01-0.27c2.06,6.29,7.9,10.91,14.84,11.06
			c-5.4,4.23-12.26,6.77-19.69,6.77c-1.3,0-2.55-0.06-3.8-0.22c7.03,4.54,15.37,7.13,24.36,7.13c29.22,0,45.19-24.2,45.19-45.18
			c0-0.7-0.02-1.38-0.06-2.05C133.92,81.99,136.57,79.2,138.73,75.98z"/>
	</g>
</g>
<g id="Instagram" class="st1">
	<g class="st2">
		<g>
			<path class="st0" d="M114.88,100"/>
			<path class="st0" d="M144.38,81.59c-0.22-4.75-0.97-8-2.08-10.84c-1.12-2.98-2.88-5.68-5.15-7.91c-2.23-2.27-4.93-4.03-7.91-5.15
				c-2.84-1.1-6.09-1.86-10.84-2.07c-4.76-0.22-6.28-0.27-18.41-0.27c-12.13,0-13.65,0.05-18.41,0.27c-4.75,0.22-8,0.97-10.84,2.08
				c-2.98,1.12-5.68,2.88-7.91,5.15c-2.27,2.23-4.03,4.93-5.15,7.91c-1.1,2.84-1.86,6.08-2.07,10.84
				c-0.22,4.76-0.27,6.28-0.27,18.41c0,12.13,0.05,13.65,0.27,18.41c0.22,4.75,0.97,8,2.08,10.84c1.12,2.98,2.88,5.68,5.15,7.91
				c2.23,2.27,4.93,4.03,7.91,5.15c2.84,1.1,6.09,1.86,10.84,2.07c4.76,0.22,6.28,0.27,18.41,0.27c12.13,0,13.65-0.05,18.41-0.27
				c4.75-0.22,8-0.97,10.84-2.07c6-2.32,10.74-7.06,13.06-13.06c1.1-2.84,1.86-6.09,2.07-10.84c0.22-4.76,0.27-6.28,0.27-18.41
				C144.65,87.87,144.6,86.35,144.38,81.59z M136.34,118.04c-0.2,4.35-0.93,6.72-1.54,8.29c-1.5,3.89-4.58,6.97-8.47,8.47
				c-1.57,0.61-3.94,1.34-8.29,1.54c-4.71,0.21-6.12,0.26-18.04,0.26c-11.92,0-13.33-0.05-18.04-0.26c-4.35-0.2-6.72-0.93-8.29-1.54
				c-1.94-0.72-3.69-1.86-5.13-3.34c-1.48-1.44-2.62-3.19-3.34-5.13c-0.61-1.57-1.34-3.94-1.54-8.29
				c-0.21-4.71-0.26-6.12-0.26-18.04c0-11.92,0.05-13.33,0.26-18.04c0.2-4.35,0.93-6.72,1.54-8.29c0.72-1.94,1.86-3.69,3.34-5.13
				c1.44-1.48,3.19-2.62,5.13-3.34c1.57-0.61,3.94-1.34,8.29-1.54c4.71-0.21,6.12-0.26,18.04-0.26c11.92,0,13.33,0.05,18.04,0.26
				c4.35,0.2,6.72,0.93,8.29,1.54c1.94,0.72,3.69,1.86,5.13,3.34c1.48,1.44,2.62,3.2,3.34,5.13c0.61,1.57,1.34,3.94,1.54,8.29
				c0.21,4.71,0.26,6.12,0.26,18.04C136.6,111.92,136.56,113.33,136.34,118.04z"/>
			<path class="st0" d="M123.83,81.53c-2.96,0-5.36-2.4-5.36-5.36c0-2.96,2.4-5.36,5.36-5.36s5.36,2.4,5.36,5.36
				C129.19,79.13,126.79,81.53,123.83,81.53L123.83,81.53z"/>
			<path class="st0" d="M123.83,81.53"/>
			<path class="st0" d="M144.38,118.41"/>
			<path class="st0" d="M100,77.07c-12.66,0-22.93,10.26-22.93,22.93s10.27,22.93,22.93,22.93c12.66,0,22.93-10.26,22.93-22.93
				S112.66,77.07,100,77.07z M100,114.88c-8.22,0-14.88-6.66-14.88-14.88S91.78,85.12,100,85.12s14.88,6.66,14.88,14.88
				S108.22,114.88,100,114.88z"/>
		</g>
		<g>
			<path class="st0" d="M100,185c-46.87,0-85-38.13-85-85s38.13-85,85-85s85,38.13,85,85S146.87,185,100,185z M100,22.25
				c-42.87,0-77.75,34.88-77.75,77.75c0,42.87,34.88,77.75,77.75,77.75c42.87,0,77.75-34.88,77.75-77.75
				C177.75,57.13,142.87,22.25,100,22.25z"/>
		</g>
	</g>
</g>
<g id="LinkedIn" class="st1">
	<g class="st2">
		<g>
			<path class="st0" d="M100,185c-46.87,0-85-38.13-85-85s38.13-85,85-85s85,38.13,85,85S146.87,185,100,185z M100,22.25
				c-42.87,0-77.75,34.88-77.75,77.75c0,42.87,34.88,77.75,77.75,77.75c42.87,0,77.75-34.88,77.75-77.75
				C177.75,57.13,142.87,22.25,100,22.25z"/>
		</g>
		<g>
			<path class="st0" d="M146.06,106.2v31.79h-18.43v-29.65c0-7.45-2.66-12.54-9.34-12.54c-5.09,0-8.11,3.43-9.45,6.74
				c-0.49,1.18-0.61,2.82-0.61,4.49v30.95H89.81c0,0,0.25-50.23,0-55.43h18.43v7.86c-0.03,0.06-0.09,0.12-0.12,0.18h0.12v-0.18
				c2.45-3.77,6.82-9.16,16.61-9.16C136.97,81.26,146.06,89.18,146.06,106.2L146.06,106.2z M70.53,55.84
				c-6.31,0-10.43,4.14-10.43,9.58c0,5.32,4,9.58,10.19,9.58h0.11c6.43,0,10.43-4.25,10.43-9.58
				C80.71,59.98,76.84,55.84,70.53,55.84L70.53,55.84z M61.2,137.99h18.42V82.56H61.2V137.99z M61.2,137.99"/>
		</g>
	</g>
</g>
<g id="Youtube" class="st1">
	<g class="st2">
		<g>
			<g>
				<path class="st0" d="M100,185c-46.87,0-85-38.13-85-85s38.13-85,85-85s85,38.13,85,85S146.87,185,100,185z M100,22.25
					c-42.87,0-77.75,34.88-77.75,77.75c0,42.87,34.88,77.75,77.75,77.75c42.87,0,77.75-34.88,77.75-77.75
					C177.75,57.13,142.87,22.25,100,22.25z"/>
			</g>
		</g>
		<g>
			<path class="st0" d="M124.12,70.81H75.88c-9.46,0-17.14,7.67-17.14,17.13v24.11c0,9.46,7.67,17.13,17.14,17.13h48.23
				c9.46,0,17.13-7.67,17.13-17.13V87.94C141.25,78.48,133.58,70.81,124.12,70.81L124.12,70.81z M112.53,101.17l-22.56,10.76
				c-0.6,0.29-1.3-0.15-1.3-0.82V88.92c0-0.68,0.71-1.11,1.31-0.81l22.56,11.43C113.22,99.89,113.21,100.85,112.53,101.17
				L112.53,101.17z M112.53,101.17"/>
		</g>
	</g>
</g>
<g id="Flecha_Estilo_A" class="st1">
	<g class="st2">
		<path class="st0" d="M100,15c-46.87,0-85,38.13-85,85s38.13,85,85,85s85-38.13,85-85S146.87,15,100,15z M100,169.24
			c-38.18,0-69.24-31.06-69.24-69.24S61.82,30.76,100,30.76s69.24,31.06,69.24,69.24S138.18,169.24,100,169.24z"/>
		<path class="st0" d="M128.14,97.75h-50.8L99,76.08c0.88-0.88,0.88-2.3,0-3.18c-0.88-0.88-2.3-0.88-3.18,0L70.4,98.32
			c-0.47,0.41-0.79,1-0.79,1.68c0,0.01,0,0.01,0,0.02c0,0.01,0,0.01,0,0.02c0,0.6,0.24,1.17,0.66,1.59l25.55,25.47
			c0.44,0.44,1.01,0.66,1.59,0.66c0.58,0,1.15-0.22,1.59-0.66c0.88-0.88,0.88-2.31,0-3.18l-21.73-21.66h50.87
			c1.24,0,2.25-1.01,2.25-2.25S129.38,97.75,128.14,97.75z"/>
	</g>
</g>
<g id="Flecha_Estilo_B" class="st1">
	<g class="st2">
		<path class="st0" d="M100,15c-46.87,0-85,38.13-85,85s38.13,85,85,85s85-38.13,85-85S146.87,15,100,15z M100,170.77
			c-39.03,0-70.77-31.75-70.77-70.77S60.97,29.23,100,29.23s70.77,31.75,70.77,70.77S139.03,170.77,100,170.77z"/>
		<path class="st0" d="M118.15,65.76c-1.11-1.11-2.91-1.11-4.02,0L81.85,98.04c-0.53,0.53-0.83,1.26-0.83,2.01
			c0,0.76,0.3,1.48,0.84,2.01l32.28,32.18c0.56,0.55,1.28,0.83,2.01,0.83c0.73,0,1.46-0.28,2.01-0.84c1.11-1.11,1.11-2.91-0.01-4.02
			l-30.26-30.17l30.27-30.27C119.26,68.67,119.26,66.87,118.15,65.76z"/>
	</g>
</g>
<g id="Compra_Rápida" class="st1">
	<g class="st2">
		<path class="st3" d="M145.64,81.37c-0.36-0.66-1.05-1.08-1.8-1.08h-40.28l25.2-62.48c0.25-0.63,0.18-1.35-0.2-1.91
			c-0.38-0.56-1.01-0.9-1.7-0.9H99.22c-0.84,0-1.59,0.51-1.9,1.29L64.17,99.91c-0.25,0.63-0.17,1.34,0.21,1.9
			c0.38,0.56,1.01,0.9,1.69,0.9c0,0,0,0,0,0l37.86-0.05L80.12,170.5c-0.38,1.07-0.23,2.21,0.41,3.11c0.66,0.92,1.72,1.48,2.86,1.48
			c1.15,0,2.19-0.57,2.84-1.55l59.32-90.07C145.96,82.83,146,82.03,145.64,81.37z"/>
		<path class="st0" d="M135.73,91.28c-0.36-0.66-1.05-1.08-1.8-1.08H93.65l25.2-62.48c0.25-0.63,0.18-1.35-0.2-1.91
			c-0.38-0.56-1.01-0.9-1.7-0.9H89.31c-0.84,0-1.59,0.51-1.9,1.29l-33.15,83.61c-0.25,0.63-0.17,1.34,0.21,1.9
			c0.38,0.56,1.01,0.9,1.69,0.9c0,0,0,0,0,0l37.86-0.05l-23.82,67.85c-0.38,1.07-0.23,2.21,0.41,3.11c0.66,0.92,1.72,1.48,2.86,1.48
			c1.15,0,2.19-0.57,2.84-1.55l59.32-90.07C136.06,92.74,136.09,91.94,135.73,91.28z"/>
	</g>
</g>
<g id="Pago_100_x25__Seguro" class="st1">
	<g id="_x31__13_" class="st2">
		<g>
			<path class="st0" d="M100,185c-0.45,0-0.91-0.14-1.3-0.41l-39.81-27.84c-14.83-10.6-23.87-27.1-24.8-45.28L30.3,46.94
				c-0.26-4.82,3.11-9.18,7.83-10.14c2.12-0.43,5.09-0.61,8.81-0.54c12.67,0.25,25.4-3.64,35.86-10.99l12.51-8.79
				c2.82-1.98,6.6-1.98,9.42-0.01l12.88,8.99c10.59,7.39,23.13,11.15,36.25,10.87c3.34-0.07,6.03,0.09,8,0.49
				c4.74,0.95,8.12,5.31,7.86,10.13l-3.79,64.54c-0.93,18.17-9.97,34.67-24.78,45.25l-39.83,27.85C100.91,184.86,100.46,185,100,185
				z M45.28,40.78c-2.64,0-4.74,0.15-6.25,0.46c-2.58,0.52-4.34,2.81-4.2,5.44l3.79,64.54c0.86,16.81,9.21,32.05,22.89,41.83
				L100,179.96l38.51-26.93c13.66-9.76,22.01-25,22.87-41.8l3.79-64.54c0.14-2.58-1.68-4.92-4.22-5.43l0,0
				c-1.64-0.33-4-0.46-7.01-0.4c-14.14,0.29-27.56-3.74-38.94-11.68l-12.88-8.99c-1.26-0.88-2.96-0.88-4.22,0.01L85.4,28.98
				C73.99,37,60.66,41.1,46.84,40.8C46.3,40.79,45.78,40.78,45.28,40.78z"/>
		</g>
		<g>
			<path class="st0" d="M100,133.19c-20.42,0-37.03-16.61-37.03-37.03S79.58,59.13,100,59.13s37.03,16.61,37.03,37.03
				S120.42,133.19,100,133.19z M100,63.66c-17.92,0-32.5,14.58-32.5,32.5s14.58,32.5,32.5,32.5s32.5-14.58,32.5-32.5
				S117.92,63.66,100,63.66z"/>
		</g>
		<g>
			<path class="st0" d="M95.68,109.67c-0.6,0-1.18-0.24-1.6-0.66l-9.48-9.48c-0.89-0.89-0.89-2.32,0-3.21
				c0.89-0.89,2.32-0.89,3.21,0l7.7,7.7l16.54-20.51c0.79-0.97,2.21-1.13,3.19-0.34c0.97,0.79,1.13,2.21,0.34,3.19l-18.12,22.48
				c-0.4,0.5-1,0.81-1.65,0.84C95.76,109.66,95.72,109.67,95.68,109.67z"/>
		</g>
	</g>
</g>
<g id="Servicio_Personalizado" class="st1">
	<g class="st2">
		<path class="st0" d="M122.35,112.1l-3.73-14.18c-0.07-0.26-0.19-0.5-0.34-0.71c0.66-1.01,1.31-2.1,1.95-3.24
			c9.57-1.61,14.37-5.53,15.59-12.82h1.69c4.06,0,7.36-3.3,7.36-7.35V55.64c0-4.06-3.3-7.35-7.36-7.35h-2.98
			c-0.88-16.75-9.33-24.93-16.45-28.85c-12.57-6.92-28.6-4.93-37.31,0.44c-9.03,5.58-14.65,15.86-15.62,28.41h-1.99
			c-4.06,0-7.35,3.3-7.35,7.35V73.8c0,4.06,3.3,7.35,7.35,7.35h7.85c0.78,0,1.5-0.22,2.14-0.56c1.76,5.19,4.48,11.68,8.36,17.18
			c-0.02,0.05-0.04,0.09-0.05,0.14l-3.72,14.18c-26.8,0.59-48.42,22.56-48.42,49.5v11.15c0,6.76,5.5,12.26,12.26,12.26h116.82
			c6.76,0,12.26-5.5,12.26-12.26V161.6C170.67,134.69,149.1,112.75,122.35,112.1z M75.57,72.78V68.1c0.32-2.19,1.04-5.16,1.52-7.14
			l0.33-1.38c1.15-4.94,2.99-8.3,5.32-9.73c0.96-0.59,2.03-0.86,3.19-0.81c0.51,2.03,1.64,3.78,3.33,5.11
			c2.48,1.95,5.91,2.78,9.19,2.21c3.65-0.63,6.88-2.67,10.01-4.64c5.41-3.41,8.07-4.67,10.8-2.39c4.98,4.08,5.66,15.14,5.51,19.15
			c0,0.07,0.01,0.13,0.01,0.2c-0.74,3.2-3.15,12.69-7.46,21.15c-2.81,0.34-6.13,0.51-9.89,0.51c-1.25,0-2.27,1.02-2.27,2.27
			s1.02,2.27,2.27,2.27c2.6,0,4.96-0.08,7.13-0.23c-4.35,6.71-9.16,10.11-14.32,10.11C84.69,104.74,77.1,78.7,75.57,72.78z
			 M122.86,88.76c1.4-3.1,2.57-6.21,3.51-9.05c0.83,0.88,2,1.44,3.3,1.44h1.56C130.45,84.64,128.31,87.23,122.86,88.76z
			 M140.34,55.64V73.8c0,1.55-1.27,2.82-2.82,2.82l-3.44,0c-0.03,0-0.05-0.01-0.08-0.01c-0.15-0.01-0.31,0-0.45,0.01l-3.88,0
			l0-23.79h0h2.7c0.01,0,0.02,0,0.03,0h5.13C139.08,52.82,140.34,54.08,140.34,55.64z M83.17,23.73c7.72-4.77,22.07-6.2,32.73-0.33
			c8.59,4.73,13.44,13.3,14.12,24.88h-0.35c-1.64,0-3.06,0.88-3.86,2.18c-0.95-1.78-2.14-3.39-3.66-4.63
			c-5.54-4.61-11.15-1.07-16.11,2.05c-2.75,1.73-5.6,3.53-8.36,4.01c-2,0.34-4.15-0.15-5.61-1.3c-1.16-0.91-1.8-2.15-1.89-3.68
			c-0.06-0.99-0.76-1.82-1.72-2.06c-2.9-0.72-5.7-0.33-8.09,1.13c-1.98,1.21-3.62,3.14-4.95,5.73c-0.5-1.96-2.27-3.43-4.39-3.43
			h-1.31C70.31,41.73,72.85,30.11,83.17,23.73z M71.04,76.62h-7.86c-1.55,0-2.82-1.26-2.82-2.82V55.64c0-1.55,1.26-2.82,2.82-2.82
			l4.08,0c0.02,0,0.03,0,0.05,0c0,0,0.01,0,0.01,0l3.72,0L71.04,76.62z M100.24,109.28c5.36,0,10.27-2.55,14.69-7.59l3.14,11.95
			c-3.2,1.95-10.39,5.73-18.07,5.73c-8.4,0-15.04-3.63-18-5.57l3.07-11.7C89.12,106.34,94.12,109.28,100.24,109.28z M166.13,172.74
			c0,4.26-3.46,7.72-7.72,7.72H41.59c-4.26,0-7.72-3.46-7.72-7.72V161.6c0-24.55,19.77-44.57,44.22-44.98
			c2.39,1.78,10.68,7.29,21.91,7.29c10.27,0,19.39-5.63,21.84-7.29c24.49,0.38,44.29,20.41,44.29,44.98V172.74z"/>
		<path class="st0" d="M142.24,143.84h-25.81c-1.25,0-2.27,1.02-2.27,2.27v9.65c0,1.25,1.02,2.27,2.27,2.27h25.81
			c1.25,0,2.27-1.02,2.27-2.27v-9.65C144.51,144.86,143.49,143.84,142.24,143.84z M139.98,153.49H118.7v-5.11h21.27V153.49z"/>
	</g>
</g>
<g id="Calidad_y_Mejor_Precio" class="st1">
	<g class="st2">
		<path class="st0" d="M154.84,75.11c0-2.17,0.67-4.53,1.37-7.03c1.08-3.82,2.19-7.76,0.97-11.54c-1.28-3.95-4.58-6.52-7.77-9.01
			c-1.98-1.54-3.84-3-5.04-4.64c-1.22-1.68-2.04-3.92-2.91-6.31c-1.38-3.78-2.81-7.68-6.12-10.09c-3.28-2.38-7.41-2.54-11.41-2.7
			c-2.55-0.1-4.96-0.19-6.97-0.84c-1.88-0.61-3.81-1.92-5.86-3.3C107.88,17.46,104.23,15,100,15c-4.23,0-7.88,2.46-11.09,4.64
			c-2.05,1.38-3.98,2.69-5.86,3.3c-2.01,0.65-4.42,0.74-6.97,0.84c-4,0.15-8.14,0.31-11.41,2.7c-3.31,2.41-4.74,6.31-6.12,10.09
			c-0.87,2.38-1.7,4.63-2.91,6.31c-1.19,1.64-3.06,3.1-5.04,4.64c-3.19,2.49-6.49,5.07-7.77,9.01c-1.23,3.78-0.11,7.73,0.97,11.54
			c0.71,2.5,1.37,4.86,1.37,7.03c0,2.17-0.67,4.53-1.37,7.03c-1.08,3.82-2.19,7.76-0.97,11.54c1.28,3.95,4.58,6.52,7.77,9.01
			c1.98,1.54,3.84,3,5.04,4.64c1.22,1.68,2.04,3.92,2.91,6.31c1.38,3.78,2.81,7.68,6.12,10.09c0.19,0.14,0.39,0.24,0.58,0.37
			l-9.72,58.26c-0.13,0.76,0.14,1.53,0.71,2.05c0.42,0.38,0.97,0.59,1.53,0.59c0.19,0,0.39-0.03,0.58-0.08L100,173.89l41.66,10.85
			c0.74,0.2,1.53,0,2.1-0.52c0.57-0.52,0.83-1.29,0.71-2.05l-9.71-58.08c0.19-0.12,0.39-0.23,0.58-0.36
			c3.31-2.41,4.74-6.31,6.12-10.09c0.87-2.38,1.7-4.63,2.91-6.31c1.19-1.64,3.06-3.1,5.04-4.64c3.19-2.49,6.49-5.07,7.77-9.01
			c1.23-3.78,0.11-7.73-0.97-11.54C155.51,79.64,154.84,77.28,154.84,75.11z M69.56,125.8c2.1,0.45,4.33,0.55,6.51,0.63
			c1.45,0.06,2.85,0.12,4.16,0.28l-8.31,49.93l-11.34,3L69.56,125.8z M99.42,169.35l-22.69,6.01l7.9-47.43
			c1.38,0.69,2.8,1.64,4.28,2.64c3.22,2.17,6.86,4.64,11.09,4.64c4.23,0,7.88-2.46,11.09-4.64c1.52-1.03,2.98-2.01,4.4-2.7
			l7.56,47.33l-22.48-5.85C100.19,169.25,99.8,169.26,99.42,169.35z M139.42,179.47l-11.58-3.01l-7.95-49.76
			c1.27-0.14,2.62-0.21,4.03-0.26c2.19-0.08,4.41-0.18,6.52-0.64L139.42,179.47z M151.85,83.37c0.94,3.31,1.82,6.44,1.02,8.91
			c-0.85,2.63-3.47,4.67-6.25,6.84c-2.14,1.67-4.35,3.39-5.91,5.55c-1.59,2.19-2.57,4.85-3.51,7.42c-1.2,3.28-2.34,6.38-4.53,7.98
			c-2.16,1.57-5.44,1.7-8.92,1.83c-2.75,0.1-5.59,0.22-8.2,1.06c-2.49,0.81-4.78,2.36-7,3.85c-2.94,1.99-5.71,3.86-8.55,3.86
			s-5.62-1.87-8.55-3.86c-2.22-1.5-4.51-3.05-7-3.86c-2.6-0.85-5.45-0.96-8.2-1.06c-3.48-0.13-6.76-0.26-8.92-1.83
			c-2.19-1.6-3.33-4.7-4.53-7.98c-0.94-2.57-1.91-5.23-3.51-7.42c-1.57-2.16-3.78-3.88-5.91-5.55c-2.77-2.17-5.4-4.21-6.25-6.84
			c-0.8-2.47,0.08-5.6,1.02-8.91c0.76-2.69,1.54-5.46,1.54-8.27c0-2.8-0.79-5.58-1.54-8.27c-0.94-3.31-1.82-6.44-1.02-8.91
			c0.85-2.63,3.47-4.67,6.25-6.84c2.14-1.67,4.34-3.39,5.91-5.55c1.59-2.19,2.57-4.85,3.51-7.42c1.2-3.28,2.34-6.38,4.53-7.98
			c2.16-1.57,5.44-1.7,8.92-1.83c2.75-0.11,5.59-0.22,8.2-1.06c2.49-0.81,4.78-2.36,7-3.86c2.94-1.99,5.71-3.86,8.55-3.86
			c2.84,0,5.62,1.88,8.55,3.86c2.22,1.5,4.51,3.05,7,3.86c2.6,0.85,5.45,0.96,8.2,1.06c3.48,0.13,6.76,0.26,8.92,1.83
			c2.19,1.6,3.33,4.7,4.53,7.98c0.94,2.57,1.91,5.23,3.51,7.41c1.57,2.16,3.78,3.88,5.92,5.55c2.77,2.17,5.39,4.21,6.25,6.84
			c0.8,2.47-0.08,5.6-1.02,8.91c-0.76,2.69-1.55,5.46-1.55,8.27C150.3,77.91,151.09,80.69,151.85,83.37z"/>
		<path class="st0" d="M100,32.31c-23.6,0-42.8,19.2-42.8,42.8s19.2,42.8,42.8,42.8c23.6,0,42.8-19.2,42.8-42.8
			S123.6,32.31,100,32.31z M100,113.37c-21.1,0-38.27-17.17-38.27-38.27S78.9,36.84,100,36.84c21.1,0,38.27,17.17,38.27,38.27
			S121.1,113.37,100,113.37z"/>
		<path class="st0" d="M124.04,66.83l-15.89-1.36l-6.06-14.58c-0.35-0.85-1.18-1.4-2.09-1.4c-0.92,0-1.74,0.55-2.09,1.4l-6.06,14.58
			l-15.89,1.36c-0.92,0.08-1.69,0.7-1.97,1.58c-0.28,0.88,0,1.83,0.71,2.42l12.11,10.16L83.05,96.6c-0.22,0.9,0.13,1.83,0.88,2.37
			c0.75,0.54,1.75,0.57,2.53,0.08L100,90.57l13.54,8.48c0.37,0.23,0.79,0.35,1.2,0.35c0.46,0,0.93-0.14,1.32-0.43
			c0.75-0.54,1.1-1.47,0.88-2.37l-3.75-15.62l12.12-10.16c0.7-0.59,0.98-1.55,0.71-2.42C125.74,67.53,124.96,66.91,124.04,66.83z
			 M109.2,78.41c-0.66,0.55-0.95,1.43-0.75,2.27l2.78,11.58l-10.04-6.29c-0.37-0.23-0.79-0.35-1.2-0.35c-0.42,0-0.84,0.12-1.2,0.35
			l-10.03,6.29l2.78-11.58c0.2-0.84-0.09-1.71-0.75-2.27l-8.98-7.53l11.79-1.01c0.84-0.07,1.58-0.61,1.9-1.39L100,57.67l4.5,10.82
			c0.32,0.78,1.06,1.32,1.9,1.39l11.79,1.01L109.2,78.41z"/>
	</g>
</g>
<g id="Facilidad_de_Pago" class="st1">
	<g class="st2">
		<path class="st0" d="M178.56,88.91h-13.68L142.96,26.2c-1.17-3.35-4.85-5.12-8.21-3.96L19.32,62.58
			c-3.35,1.17-5.13,4.85-3.96,8.21l25.18,72.05c0.57,1.62,1.73,2.93,3.28,3.68c0.89,0.43,1.84,0.64,2.79,0.64
			c0.72,0,1.43-0.12,2.13-0.36l1.08-0.38v25.26c0,3.55,2.89,6.44,6.44,6.44h122.29c3.55,0,6.44-2.89,6.44-6.44v-46.61v-18.48V95.35
			C185,91.8,182.11,88.91,178.56,88.91z M180.82,95.35v9.15H54.01v-9.15c0-1.25,1.02-2.26,2.26-2.26h122.29
			C179.81,93.09,180.82,94.11,180.82,95.35z M180.82,122.98H54.01v-14.3h126.82V122.98z M47.37,142.85c-0.57,0.2-1.19,0.16-1.73-0.1
			c-0.55-0.26-0.95-0.72-1.15-1.29L19.3,69.41c-0.2-0.57-0.17-1.19,0.1-1.73c0.26-0.55,0.72-0.95,1.29-1.15l115.44-40.34
			c1.18-0.41,2.47,0.21,2.88,1.39l21.44,61.34H56.27c-3.55,0-6.44,2.89-6.44,6.44v11.24v18.48v16.92L47.37,142.85z M178.56,173.94
			H56.27c-1.25,0-2.26-1.02-2.26-2.26v-44.52h126.82v44.52C180.82,172.93,179.81,173.94,178.56,173.94z"/>
		<path class="st0" d="M123,149.39H67.06c-1.15,0-2.09,0.94-2.09,2.09c0,1.15,0.93,2.09,2.09,2.09H123c1.15,0,2.09-0.94,2.09-2.09
			C125.08,150.32,124.15,149.39,123,149.39z"/>
		<path class="st0" d="M78.69,160.73H67.06c-1.15,0-2.09,0.94-2.09,2.09s0.93,2.09,2.09,2.09h11.63c1.15,0,2.09-0.94,2.09-2.09
			S79.84,160.73,78.69,160.73z"/>
		<path class="st0" d="M101.08,160.73H89.45c-1.15,0-2.09,0.94-2.09,2.09s0.93,2.09,2.09,2.09h11.63c1.15,0,2.09-0.94,2.09-2.09
			S102.23,160.73,101.08,160.73z"/>
		<path class="st0" d="M163.98,149.39h-13.12c-2.85,0-5.16,2.32-5.16,5.16v5.2c0,2.85,2.32,5.16,5.16,5.16h13.12
			c2.85,0,5.16-2.32,5.16-5.16v-5.2C169.14,151.7,166.83,149.39,163.98,149.39z M164.97,159.75c0,0.54-0.44,0.98-0.99,0.98h-13.12
			c-0.54,0-0.99-0.44-0.99-0.98v-5.2c0-0.54,0.44-0.99,0.99-0.99h13.12c0.54,0,0.99,0.44,0.99,0.99V159.75z"/>
		<path class="st0" d="M104.86,64.61c0.5,1.44,1.53,2.59,2.91,3.25c0.78,0.38,1.62,0.57,2.47,0.57c0.63,0,1.27-0.11,1.89-0.32
			l11.93-4.17c2.97-1.04,4.54-4.29,3.5-7.26l-2.46-7.03c-0.5-1.44-1.53-2.59-2.91-3.25c-1.37-0.66-2.92-0.75-4.36-0.25l-11.93,4.17
			c-1.44,0.5-2.59,1.53-3.25,2.91c-0.66,1.37-0.75,2.92-0.25,4.36L104.86,64.61z M106.42,55.05c0.18-0.37,0.49-0.64,0.87-0.78
			l11.93-4.17c0.16-0.06,0.33-0.09,0.5-0.09c0.23,0,0.45,0.05,0.66,0.15c0.37,0.18,0.64,0.49,0.78,0.87l2.46,7.03
			c0.28,0.79-0.14,1.66-0.94,1.94l-11.93,4.17c-0.39,0.14-0.8,0.11-1.17-0.07c-0.37-0.18-0.64-0.49-0.78-0.87l-2.46-7.03
			C106.22,55.83,106.24,55.41,106.42,55.05z"/>
		<path class="st0" d="M90.18,60.21c0.3,0.86,1.11,1.4,1.97,1.4c0.23,0,0.46-0.04,0.69-0.12c1.09-0.38,1.66-1.57,1.28-2.66
			l-0.84-2.41c-0.38-1.09-1.57-1.66-2.66-1.28c-1.09,0.38-1.66,1.57-1.28,2.66L90.18,60.21z"/>
		<path class="st0" d="M78.2,64.4c0.3,0.86,1.11,1.4,1.97,1.4c0.23,0,0.46-0.04,0.69-0.12c1.09-0.38,1.66-1.57,1.28-2.66l-0.84-2.41
			c-0.38-1.09-1.57-1.66-2.66-1.28c-1.09,0.38-1.66,1.57-1.28,2.66L78.2,64.4z"/>
		<path class="st0" d="M66.22,68.58c0.3,0.86,1.11,1.4,1.97,1.4c0.23,0,0.46-0.04,0.69-0.12c1.09-0.38,1.66-1.57,1.28-2.66
			l-0.84-2.41c-0.38-1.09-1.57-1.66-2.66-1.28c-1.09,0.38-1.66,1.57-1.28,2.66L66.22,68.58z"/>
		<path class="st0" d="M54.24,72.77c0.3,0.86,1.11,1.4,1.97,1.4c0.23,0,0.46-0.04,0.69-0.12c1.09-0.38,1.66-1.57,1.28-2.66
			l-0.84-2.41c-0.38-1.09-1.57-1.66-2.66-1.28c-1.09,0.38-1.66,1.57-1.28,2.66L54.24,72.77z"/>
		<path class="st0" d="M45.36,73.17c-0.38-1.09-1.57-1.66-2.66-1.28c-1.09,0.38-1.66,1.57-1.28,2.66l0.84,2.41
			c0.3,0.86,1.11,1.4,1.97,1.4c0.23,0,0.46-0.04,0.69-0.12c1.09-0.38,1.66-1.57,1.28-2.66L45.36,73.17z"/>
	</g>
</g>
<g id="Buscador_x2F_Lupa" class="st1">
	<path class="st4" d="M181.7,165.35l-33.17-33.17c9.26-12.56,14.35-27.64,14.35-43.54c0-19.67-7.66-38.16-21.57-52.07
		C127.4,22.66,108.91,15,89.24,15s-38.16,7.66-52.07,21.57C23.26,50.48,15.6,68.97,15.6,88.64s7.66,38.16,21.57,52.07
		c13.91,13.91,32.4,21.57,52.07,21.57c15.31,0,29.88-4.7,42.16-13.32l33.34,33.34c3.6,3.6,9.43,3.6,13.03,0l3.93-3.93
		C185.3,174.78,185.3,168.95,181.7,165.35z M46.81,131.06c-11.33-11.33-17.57-26.4-17.57-42.43s6.24-31.1,17.57-42.43
		s26.4-17.57,42.43-17.57s31.09,6.24,42.43,17.57s17.58,26.4,17.58,42.43s-6.24,31.09-17.58,42.43s-26.4,17.58-42.43,17.58
		S58.15,142.4,46.81,131.06z"/>
</g>
<g id="Ubicación_x2F_Sucursales" class="st1">
	<g class="st2">
		<path class="st0" d="M100,15c-32.4,0-58.77,26.36-58.77,58.77c0,35.85,52.97,103.81,55.22,106.69l3.57,4.55l3.54-4.56
			c2.25-2.91,55.21-71.53,55.21-106.67C158.77,41.36,132.4,15,100,15z M99.98,170.2c-11.94-15.96-49.73-68.71-49.73-96.44
			c0-27.43,22.32-49.75,49.75-49.75s49.75,22.32,49.75,49.75C149.75,100.93,111.9,154.13,99.98,170.2z"/>
		<path class="st0" d="M100,39.41c-18.94,0-34.35,15.41-34.35,34.35s15.41,34.35,34.35,34.35s34.35-15.41,34.35-34.35
			S118.94,39.41,100,39.41z M100,99.11c-13.97,0-25.34-11.37-25.34-25.34S86.03,48.43,100,48.43s25.34,11.37,25.34,25.34
			S113.97,99.11,100,99.11z"/>
	</g>
</g>
<g id="Eliminar" class="st1">
	<path id="_x31_1_15_" class="st4" d="M163.42,40.67h-29.31V29.41c0-7.94-6.46-14.41-14.41-14.41H80.3
		c-7.94,0-14.41,6.46-14.41,14.41v11.27H36.58c-3.29,0-5.96,2.67-5.96,5.96s2.67,5.96,5.96,5.96h3.08l10.9,120.37
		c0.62,6.86,6.28,12.03,13.17,12.03h72.53c6.89,0,12.55-5.17,13.17-12.03l10.9-120.37h3.08c3.29,0,5.96-2.67,5.96-5.96
		S166.71,40.67,163.42,40.67z M77.82,29.41c0-1.37,1.11-2.48,2.48-2.48h39.4c1.37,0,2.48,1.11,2.48,2.48v11.27H77.82V29.41z
		 M74.84,152.43c-0.13,0.01-0.26,0.01-0.39,0.01c-3.12,0-5.74-2.43-5.95-5.58l-4.09-64.1c-0.21-3.29,2.28-6.12,5.57-6.33
		c3.29-0.21,6.12,2.28,6.33,5.57l4.09,64.1C80.62,149.38,78.12,152.22,74.84,152.43z M105.96,146.48c0,3.29-2.67,5.96-5.96,5.96
		s-5.96-2.67-5.96-5.96v-64.1c0-3.29,2.67-5.96,5.96-5.96s5.96,2.67,5.96,5.96V146.48z M135.59,82.76l-4.09,64.1
		c-0.2,3.16-2.83,5.58-5.95,5.58c-0.13,0-0.26,0-0.39-0.01c-3.29-0.21-5.78-3.04-5.57-6.33l4.09-64.1c0.21-3.29,3.05-5.78,6.33-5.57
		C133.3,76.64,135.8,79.47,135.59,82.76z"/>
</g>
<g id="Mi_Cuenta" class="st1">
	<path id="_x33__19_" class="st4" d="M160.1,39.9C144.05,23.84,122.7,15,100,15s-44.05,8.84-60.1,24.9C23.84,55.95,15,77.3,15,100
		s8.84,44.05,24.9,60.1C55.95,176.16,77.3,185,100,185s44.05-8.84,60.1-24.9c16.05-16.05,24.9-37.4,24.9-60.1
		S176.16,55.95,160.1,39.9z M144.96,159.17c-12.49,9.52-28.08,15.17-44.96,15.17c-16.88,0-32.47-5.66-44.96-15.18
		c-2.05-1.56-2.93-4.24-2.11-6.68c4.37-13.04,14.84-23.6,28.3-28.78c1.81-0.7,2.17-3.13,0.6-4.27C74.06,113.81,69,104.66,69,94.35
		c0-17.5,14.58-31.66,32.22-30.97c16.55,0.64,29.77,14.4,29.77,30.97c0,10.31-5.06,19.46-12.82,25.1c-1.57,1.14-1.21,3.57,0.6,4.27
		c13.4,5.16,23.85,15.66,28.25,28.64C147.87,154.84,147.05,157.58,144.96,159.17z"/>
</g>
<g id="Preguntas_Frecuentes" class="st1">
	<path id="_x31_3_17_" class="st4" d="M160.1,39.9C144.05,23.84,122.7,15,100,15c-22.7,0-44.05,8.84-60.1,24.9
		C23.84,55.95,15,77.3,15,100s8.84,44.05,24.9,60.1C55.95,176.16,77.3,185,100,185c22.7,0,44.05-8.84,60.1-24.9
		c16.05-16.05,24.9-37.4,24.9-60.1S176.16,55.95,160.1,39.9z M100,148.12c-3.83,0-6.95-3.12-6.95-6.95c0-3.83,3.12-6.95,6.95-6.95
		s6.95,3.12,6.95,6.95C106.95,145.01,103.83,148.12,100,148.12z M113.57,104.34c-5.08,2.82-8.24,8.28-8.24,14.26v1.69
		c0,2.95-2.39,5.33-5.33,5.33s-5.33-2.39-5.33-5.33v-1.69c0-9.84,5.26-18.88,13.73-23.58c5.8-3.22,9.21-9.34,8.91-15.98
		c-0.41-8.83-7.64-16.07-16.47-16.47c-5.78-0.27-11.29,2.34-14.73,6.98c-2.23,3-3.41,6.57-3.41,10.32c0,2.95-2.39,5.33-5.33,5.33
		c-2.95,0-5.33-2.39-5.33-5.33c0-6.06,1.91-11.83,5.52-16.69c5.57-7.49,14.46-11.7,23.79-11.27c6.94,0.32,13.5,3.23,18.46,8.18
		c4.96,4.96,7.86,11.51,8.18,18.46C128.45,89.26,122.94,99.14,113.57,104.34z"/>
</g>
</svg>
